<svg width="16" height="16" viewBox="0 0 16 16" fill="none" xmlns="http://www.w3.org/2000/svg">
<g id="twemoji:plus" clip-path="url(#clip0_1029_12347)">
<path id="Vector" d="M13.7778 6.66645H9.33336V2.22201C9.33336 1.86838 9.19288 1.52924 8.94284 1.2792C8.69279 1.02915 8.35365 0.888672 8.00003 0.888672C7.64641 0.888672 7.30727 1.02915 7.05722 1.2792C6.80717 1.52924 6.66669 1.86838 6.66669 2.22201V6.66645H2.22225C1.86863 6.66645 1.52949 6.80693 1.27944 7.05697C1.02939 7.30702 0.888916 7.64616 0.888916 7.99978C0.888916 8.35341 1.02939 8.69254 1.27944 8.94259C1.52949 9.19264 1.86863 9.33312 2.22225 9.33312H6.66669V13.7776C6.66669 14.1312 6.80717 14.4703 7.05722 14.7204C7.30727 14.9704 7.64641 15.1109 8.00003 15.1109C8.35365 15.1109 8.69279 14.9704 8.94284 14.7204C9.19288 14.4703 9.33336 14.1312 9.33336 13.7776V9.33312H13.7778C14.1314 9.33312 14.4706 9.19264 14.7206 8.94259C14.9707 8.69254 15.1111 8.35341 15.1111 7.99978C15.1111 7.64616 14.9707 7.30702 14.7206 7.05697C14.4706 6.80693 14.1314 6.66645 13.7778 6.66645Z" fill="#31373D"/>
</g>
<defs>
<clipPath id="clip0_1029_12347">
<rect width="16" height="16" fill="white"/>
</clipPath>
</defs>
</svg>
