<svg width="24" height="24" viewBox="0 0 24 24" fill="none" xmlns="http://www.w3.org/2000/svg">
<g id="carbon:machine-learning-model">
<path id="Vector" d="M20.25 18C19.9159 18.0015 19.5865 18.0784 19.2863 18.225L16.0613 15H13.5V16.5H15.4395L18.2258 19.2863C18.0791 19.5865 18.0019 19.9159 18 20.25C18 20.695 18.132 21.13 18.3792 21.5C18.6264 21.87 18.9778 22.1584 19.389 22.3287C19.8001 22.499 20.2525 22.5436 20.689 22.4568C21.1254 22.37 21.5263 22.1557 21.841 21.841C22.1557 21.5263 22.37 21.1254 22.4568 20.689C22.5436 20.2525 22.499 19.8001 22.3287 19.389C22.1584 18.9778 21.87 18.6264 21.5 18.3792C21.13 18.132 20.695 18 20.25 18ZM20.25 21C20.1017 21 19.9567 20.956 19.8333 20.8736C19.71 20.7912 19.6139 20.6741 19.5571 20.537C19.5003 20.4 19.4855 20.2492 19.5144 20.1037C19.5433 19.9582 19.6148 19.8246 19.7197 19.7197C19.8246 19.6148 19.9582 19.5434 20.1037 19.5144C20.2492 19.4855 20.4 19.5003 20.537 19.5571C20.6741 19.6139 20.7912 19.71 20.8736 19.8333C20.956 19.9567 21 20.1017 21 20.25C21 20.4489 20.921 20.6397 20.7803 20.7803C20.6397 20.921 20.4489 21 20.25 21ZM20.25 9.75C19.7862 9.75138 19.3341 9.89631 18.956 10.1649C18.5778 10.4335 18.2921 10.8125 18.138 11.25H13.5V12.75H18.138C18.2762 13.1379 18.5183 13.4803 18.8379 13.7399C19.1575 13.9995 19.5424 14.1662 19.9503 14.2219C20.3583 14.2775 20.7737 14.22 21.1512 14.0555C21.5287 13.8911 21.8537 13.626 22.0908 13.2893C22.3278 12.9526 22.4677 12.5573 22.4952 12.1464C22.5228 11.7356 22.4368 11.3251 22.2468 10.9598C22.0569 10.5945 21.7701 10.2884 21.418 10.0751C21.0658 9.86172 20.6618 9.74927 20.25 9.75ZM20.25 12.75C20.1017 12.75 19.9567 12.706 19.8333 12.6236C19.71 12.5412 19.6139 12.4241 19.5571 12.287C19.5003 12.15 19.4855 11.9992 19.5144 11.8537C19.5433 11.7082 19.6148 11.5746 19.7197 11.4697C19.8246 11.3648 19.9582 11.2934 20.1037 11.2644C20.2492 11.2355 20.4 11.2503 20.537 11.3071C20.6741 11.3639 20.7912 11.46 20.8736 11.5833C20.956 11.7067 21 11.8517 21 12C21 12.1989 20.921 12.3897 20.7803 12.5303C20.6397 12.671 20.4489 12.75 20.25 12.75ZM20.25 1.5C19.6534 1.5006 19.0815 1.73784 18.6597 2.15967C18.2378 2.5815 18.0006 3.15345 18 3.75C18.0026 4.10929 18.0921 4.46262 18.261 4.77975L15.447 7.5H13.5V9H16.053L19.353 5.811C19.6595 5.94468 19.992 6.00831 20.3263 5.99728C20.6605 5.98624 20.9881 5.90081 21.2852 5.7472C21.5822 5.59359 21.8413 5.37568 22.0435 5.10932C22.2457 4.84296 22.386 4.53486 22.4541 4.20744C22.5223 3.88003 22.5165 3.54155 22.4373 3.21663C22.3581 2.89172 22.2075 2.58855 21.9964 2.3292C21.7852 2.06985 21.5189 1.86085 21.2168 1.71741C20.9147 1.57397 20.5844 1.49969 20.25 1.5ZM20.25 4.5C20.1017 4.5 19.9567 4.45601 19.8333 4.3736C19.71 4.29119 19.6139 4.17406 19.5571 4.03701C19.5003 3.89997 19.4855 3.74917 19.5144 3.60368C19.5433 3.4582 19.6148 3.32456 19.7197 3.21967C19.8246 3.11478 19.9582 3.04335 20.1037 3.01441C20.2492 2.98547 20.4 3.00033 20.537 3.05709C20.6741 3.11386 20.7912 3.20999 20.8736 3.33332C20.956 3.45666 21 3.60167 21 3.75C21 3.94891 20.921 4.13968 20.7803 4.28033C20.6397 4.42098 20.4489 4.5 20.25 4.5Z" fill="#848484"/>
<path id="Vector_2" d="M13.5 4.5H15V3H13.5C13.0726 3.00143 12.6505 3.09472 12.2623 3.27355C11.8741 3.45238 11.5288 3.71258 11.25 4.0365C10.9712 3.71258 10.6259 3.45238 10.2377 3.27355C9.84952 3.09472 9.42741 3.00143 9 3H8.25C6.4604 3.00199 4.74466 3.71378 3.47922 4.97922C2.21378 6.24466 1.50199 7.9604 1.5 9.75V14.25C1.50199 16.0396 2.21378 17.7553 3.47922 19.0208C4.74466 20.2862 6.4604 20.998 8.25 21H9C9.42741 20.9986 9.84952 20.9053 10.2377 20.7264C10.6259 20.5476 10.9712 20.2874 11.25 19.9635C11.5288 20.2874 11.8741 20.5476 12.2623 20.7264C12.6505 20.9053 13.0726 20.9986 13.5 21H15V19.5H13.5C13.1023 19.4996 12.721 19.3414 12.4398 19.0602C12.1586 18.779 12.0004 18.3977 12 18V6C12.0004 5.6023 12.1586 5.221 12.4398 4.93978C12.721 4.65856 13.1023 4.5004 13.5 4.5ZM9 19.5H8.25C6.98883 19.4977 5.77056 19.0419 4.81769 18.2157C3.86481 17.3895 3.24094 16.2481 3.06 15H4.5V13.5H3V10.5H5.25C5.84655 10.4994 6.4185 10.2622 6.84033 9.84033C7.26216 9.4185 7.4994 8.84655 7.5 8.25V6.75H6V8.25C6 8.44891 5.92098 8.63968 5.78033 8.78033C5.63968 8.92098 5.44891 9 5.25 9H3.06C3.24094 7.75188 3.86481 6.61049 4.81769 5.7843C5.77056 4.95811 6.98883 4.50226 8.25 4.5H9C9.3977 4.5004 9.779 4.65856 10.0602 4.93978C10.3414 5.221 10.4996 5.6023 10.5 6V9H9V10.5H10.5V13.5H9C8.40345 13.5006 7.8315 13.7378 7.40967 14.1597C6.98784 14.5815 6.7506 15.1534 6.75 15.75V17.25H8.25V15.75C8.25 15.5511 8.32902 15.3603 8.46967 15.2197C8.61032 15.079 8.80109 15 9 15H10.5V18C10.4996 18.3977 10.3414 18.779 10.0602 19.0602C9.779 19.3414 9.3977 19.4996 9 19.5Z" fill="#848484"/>
</g>
</svg>
