<svg width="22" height="24" viewBox="0 0 22 24" fill="none" xmlns="http://www.w3.org/2000/svg">
<g id="company-svgrepo-com 1">
<path id="Vector" d="M3.42231 0.959961V2.87996H1.71118V23.04H19.678V6.71996H12.8335V2.87996H11.1224V0.959961H3.42231ZM4.27788 1.91996H10.2668V3.83996H11.978V22.08H8.12792V18.72H6.41679V22.08H2.56675V3.83996H4.27788V1.91996ZM4.27788 4.79996V5.75996H5.13344V4.79996H4.27788ZM5.98901 4.79996V5.75996H6.84457V4.79996H5.98901ZM7.70014 4.79996V5.75996H8.5557V4.79996H7.70014ZM9.41127 4.79996V5.75996H10.2668V4.79996H9.41127ZM4.27788 7.19996V9.11996H5.13344V7.19996H4.27788ZM5.98901 7.19996V9.11996H6.84457V7.19996H5.98901ZM7.70014 7.19996V9.11996H8.5557V7.19996H7.70014ZM9.41127 7.19996V9.11996H10.2668V7.19996H9.41127ZM12.8335 7.67996H18.8225V22.08H12.8335V7.67996ZM13.6891 8.63996V9.59996H14.5447V8.63996H13.6891ZM15.4002 8.63996V9.59996H16.2558V8.63996H15.4002ZM17.1113 8.63996V9.59996H17.9669V8.63996H17.1113ZM4.27788 10.08V12H5.13344V10.08H4.27788ZM5.98901 10.08V12H6.84457V10.08H5.98901ZM7.70014 10.08V12H8.5557V10.08H7.70014ZM9.41127 10.08V12H10.2668V10.08H9.41127ZM13.6891 10.56V11.52H14.5447V10.56H13.6891ZM15.4002 10.56V11.52H16.2558V10.56H15.4002ZM17.1113 10.56V11.52H17.9669V10.56H17.1113ZM13.6891 12.48V13.44H14.5447V12.48H13.6891ZM15.4002 12.48V13.44H16.2558V12.48H15.4002ZM17.1113 12.48V13.44H17.9669V12.48H17.1113ZM4.27788 12.96V14.88H5.13344V12.96H4.27788ZM5.98901 12.96V14.88H6.84457V12.96H5.98901ZM7.70014 12.96V14.88H8.5557V12.96H7.70014ZM9.41127 12.96V14.88H10.2668V12.96H9.41127ZM13.6891 14.4V15.36H14.5447V14.4H13.6891ZM15.4002 14.4V15.36H16.2558V14.4H15.4002ZM17.1113 14.4V15.36H17.9669V14.4H17.1113ZM4.27788 15.84V17.76H5.13344V15.84H4.27788ZM5.98901 15.84V17.76H6.84457V15.84H5.98901ZM7.70014 15.84V17.76H8.5557V15.84H7.70014ZM9.41127 15.84V17.76H10.2668V15.84H9.41127ZM13.6891 16.32V17.28H14.5447V16.32H13.6891ZM15.4002 16.32V17.28H16.2558V16.32H15.4002ZM17.1113 16.32V17.28H17.9669V16.32H17.1113ZM13.6891 18.24V19.2H14.5447V18.24H13.6891ZM15.4002 18.24V19.2H16.2558V18.24H15.4002ZM17.1113 18.24V19.2H17.9669V18.24H17.1113ZM4.27788 18.72V21.12H5.13344V18.72H4.27788ZM9.41127 18.72V21.12H10.2668V18.72H9.41127ZM13.6891 20.16V21.12H14.5447V20.16H13.6891ZM15.4002 20.16V21.12H16.2558V20.16H15.4002ZM17.1113 20.16V21.12H17.9669V20.16H17.1113Z" fill="#848484"/>
</g>
</svg>
