<svg width="20" height="20" viewBox="0 0 20 20" fill="none" xmlns="http://www.w3.org/2000/svg">
<g clip-path="url(#clip0_714_3006)">
<path d="M9.07144 0.713867H18.0743C18.7443 0.713867 19.2872 1.25672 19.2872 1.92672V11.6096C19.2872 12.281 18.7443 12.8239 18.0743 12.8239H10.7143M4.49858 5.7153C5.16181 5.7153 5.79788 5.45183 6.26685 4.98285C6.73582 4.51388 6.99929 3.87781 6.99929 3.21458C6.99929 2.55135 6.73582 1.91528 6.26685 1.44631C5.79788 0.977335 5.16181 0.713867 4.49858 0.713867C3.83535 0.713867 3.19928 0.977335 2.73031 1.44631C2.26133 1.91528 1.99786 2.55135 1.99786 3.21458C1.99786 3.87781 2.26133 4.51388 2.73031 4.98285C3.19928 5.45183 3.83535 5.7153 4.49858 5.7153Z" stroke="#072AC8" stroke-linecap="round" stroke-linejoin="round"/>
<path d="M12.8572 7.89488C12.8572 7.08488 12.2 6.42773 11.39 6.42773H4.49858C3.49493 6.42773 2.53238 6.82643 1.82269 7.53613C1.11299 8.24582 0.714294 9.20837 0.714294 10.212V13.5706H2.33572L2.87715 19.2849H6.12001L7.36572 9.36345H11.39C12.2 9.36345 12.8572 8.70631 12.8572 7.89488Z" stroke="#072AC8" stroke-linecap="round" stroke-linejoin="round"/>
</g>
<defs>
<clipPath id="clip0_714_3006">
<rect width="20" height="20" fill="white"/>
</clipPath>
</defs>
</svg>
