<svg width="24" height="24" viewBox="0 0 24 24" fill="none" xmlns="http://www.w3.org/2000/svg">
<g clip-path="url(#clip0_602_907)">
<path d="M4.94964 14.5428V0.879997C4.94964 0.556845 5.21156 0.294922 5.53471 0.294922H18.539C21.0296 0.294922 23.0649 2.33021 23.0649 4.82075V19.1055C23.0649 19.4289 22.8029 19.6909 22.4798 19.6909H10.0977C9.80684 21.9827 7.84894 23.7053 5.53471 23.7053C2.99457 23.7053 0.935181 21.6459 0.935181 19.1055C0.935181 16.7916 2.65809 14.8337 4.94964 14.5428ZM3.27378 20.0489C2.72953 19.5046 3.55725 18.6772 4.1015 19.2214L4.89776 20.0177L6.8928 16.9528C7.31007 16.3102 8.28859 16.9458 7.87133 17.5884L5.50778 21.2187C5.32325 21.5603 4.85779 21.6329 4.57915 21.3542L3.27378 20.0489ZM10.0977 18.5204H21.8944V4.82075C21.8944 2.97652 20.3833 1.46536 18.539 1.46536H6.12007V14.5428C8.19221 14.8059 9.83462 16.448 10.0977 18.5204ZM5.53471 15.6764C3.64087 15.6764 2.10562 17.2117 2.10562 19.1055C2.10562 20.9996 3.64087 22.5349 5.53471 22.5349C7.42884 22.5349 8.9641 20.9996 8.9641 19.1055C8.9641 17.2117 7.42884 15.6764 5.53471 15.6764ZM17.6767 8.47152H20.2875C20.6106 8.47152 20.8725 8.73373 20.8725 9.05688V15.2141C20.8725 15.5372 20.6106 15.7994 20.2875 15.7994H17.6767C17.3536 15.7994 17.0914 15.5372 17.0914 15.2141V9.05688C17.0914 8.73373 17.3536 8.47152 17.6767 8.47152ZM19.7021 9.64196H18.2618V14.6287H19.7021V9.64196ZM14.8693 5.01181C14.0994 5.01181 14.0994 3.84137 14.8693 3.84137H19.3024C20.0723 3.84137 20.0723 5.01181 19.3024 5.01181H14.8693ZM14.8693 6.98219C14.0994 6.98219 14.0994 5.81175 14.8693 5.81175H19.3024C20.0723 5.81175 20.0723 6.98219 19.3024 6.98219H14.8693ZM7.6284 13.1887C6.8585 13.1887 6.8585 12.0183 7.6284 12.0183H15.7066C16.4762 12.0183 16.4762 13.1887 15.7066 13.1887H7.6284ZM7.6284 11.514C6.8585 11.514 6.8585 10.3435 7.6284 10.3435H15.7066C16.4762 10.3435 16.4762 11.514 15.7066 11.514H7.6284ZM7.6284 9.83925C6.8585 9.83925 6.8585 8.66853 7.6284 8.66853H13.4406C14.2105 8.66853 14.2105 9.83925 13.4406 9.83925H7.6284ZM7.75142 2.65932H12.0862C12.4094 2.65932 12.6713 2.92124 12.6713 3.24439V7.57917C12.6713 7.90232 12.4094 8.16453 12.0862 8.16453H7.75142C7.42827 8.16453 7.16635 7.90232 7.16635 7.57917V3.24439C7.16635 2.92124 7.42827 2.65932 7.75142 2.65932ZM11.5008 3.82975H8.33678V6.99409H11.5008V3.82975Z" fill="#072AC8"/>
</g>
<defs>
<clipPath id="clip0_602_907">
<rect width="24" height="24" fill="white"/>
</clipPath>
</defs>
</svg>
