<svg width="16" height="17" viewBox="0 0 16 17" fill="none" xmlns="http://www.w3.org/2000/svg">
<g id="fluent:mail-24-regular">
<path id="Vector" d="M3.50001 3.16675H12.5C13.0534 3.16671 13.5859 3.37845 13.9882 3.75853C14.3904 4.13861 14.632 4.65821 14.6633 5.21075L14.6667 5.33341V11.6667C14.6667 12.2202 14.455 12.7526 14.0749 13.1549C13.6948 13.5572 13.1752 13.7987 12.6227 13.8301L12.5 13.8334H3.50001C2.94659 13.8335 2.41412 13.6217 2.01186 13.2416C1.60959 12.8616 1.36801 12.342 1.33668 11.7894L1.33334 11.6667V5.33341C1.33331 4.77999 1.54505 4.24753 1.92512 3.84526C2.3052 3.44299 2.82481 3.20141 3.37734 3.17008L3.50001 3.16675ZM13.6667 6.74875L8.23334 9.60875C8.17199 9.64116 8.10457 9.66044 8.03536 9.66538C7.96615 9.67031 7.89667 9.66079 7.83134 9.63741L7.76734 9.60941L2.33334 6.74941V11.6667C2.33335 11.9595 2.44346 12.2416 2.6418 12.457C2.84014 12.6724 3.11221 12.8053 3.40401 12.8294L3.50001 12.8334H12.5C12.7929 12.8334 13.0751 12.7232 13.2905 12.5247C13.5059 12.3262 13.6387 12.054 13.6627 11.7621L13.6667 11.6667V6.74875ZM12.5 4.16675H3.50001C3.20722 4.16676 2.92513 4.27686 2.70975 4.4752C2.49437 4.67354 2.36144 4.94561 2.33734 5.23741L2.33334 5.33341V5.61941L8.00001 8.60208L13.6667 5.61875V5.33341C13.6667 5.04052 13.5565 4.75834 13.358 4.54294C13.1595 4.32754 12.8873 4.19468 12.5953 4.17075L12.5 4.16675Z" fill="#626262"/>
</g>
</svg>
