<svg width="24" height="24" viewBox="0 0 24 24" fill="none" xmlns="http://www.w3.org/2000/svg">
<g id="teacher-svgrepo-com (1) 1" clip-path="url(#clip0_850_794)">
<g id="Group">
<g id="Group_2">
<g id="Group_3">
<path id="Vector" d="M12 10.1529C14.7992 10.1529 17.0764 7.87559 17.0764 5.07643C17.0765 2.27727 14.7992 0 12 0C9.20085 0 6.92358 2.27727 6.92358 5.07643C6.92358 7.87567 9.20085 10.1529 12 10.1529ZM12 1.21212C14.1309 1.21212 15.8643 2.94565 15.8643 5.07643C15.8643 7.2072 14.1308 8.94073 12 8.94073C9.86924 8.94073 8.1357 7.2072 8.1357 5.07643C8.1357 2.94565 9.86924 1.21212 12 1.21212Z" fill="#848484"/>
<path id="Vector_2" d="M20.4787 21.7557L18.814 14.8499C18.6165 14.0303 17.8897 13.4579 17.0464 13.4579C15.989 13.4579 7.89891 13.4579 6.95377 13.4579C6.11065 13.4579 5.38378 14.0303 5.18616 14.8499L3.52143 21.7557C3.24588 22.8989 4.11165 24 5.28905 24H18.7112C19.8871 24 20.7548 22.9006 20.4787 21.7557ZM5.28905 22.7879C4.89717 22.7879 4.60794 22.4213 4.69987 22.0398L6.36459 15.134C6.43044 14.8607 6.6727 14.67 6.95385 14.67H9.71309L8.94877 20.0767C8.92613 20.2367 8.96829 20.3991 9.0659 20.5277L10.7798 22.7879H5.28905ZM10.1844 19.9965L10.9374 14.6701H13.0629L13.8159 19.9965L12.0001 22.3909L10.1844 19.9965ZM18.7112 22.7879H13.2204L14.9343 20.5278C15.0319 20.3991 15.074 20.2367 15.0514 20.0768L14.2871 14.6701H17.0463C17.3274 14.6701 17.5697 14.8609 17.6356 15.1341L19.3003 22.0399C19.3922 22.421 19.1035 22.7879 18.7112 22.7879Z" fill="#848484"/>
</g>
</g>
</g>
</g>
<defs>
<clipPath id="clip0_850_794">
<rect width="24" height="24" fill="white"/>
</clipPath>
</defs>
</svg>
