<svg width="29" height="28" viewBox="0 0 29 28" fill="none" xmlns="http://www.w3.org/2000/svg">
<g id="student-head-svgrepo-com 1">
<path id="Vector" d="M19.4481 16.4151C19.4483 17.1033 19.3111 17.7846 19.0447 18.4192C18.7784 19.0538 18.3881 19.6289 17.8968 20.1108C17.4055 20.5928 16.823 20.9719 16.1834 21.226C15.5438 21.4801 14.86 21.6041 14.1719 21.5907C12.7947 21.5361 11.4931 20.9466 10.5438 19.9474C9.59446 18.9483 9.07223 17.6182 9.08812 16.2401V9.03008C9.08791 9.01984 9.0913 9.00986 9.0977 9.00186C9.10409 8.99387 9.11309 8.98837 9.12312 8.98633C10.873 8.72246 12.6387 8.5763 14.4081 8.54883C16.1036 8.57558 17.7951 8.72177 19.47 8.98633C19.4797 8.98844 19.4882 8.99411 19.4939 9.00222C19.4995 9.01032 19.5019 9.02027 19.5006 9.03008L19.4481 16.4151Z" stroke="#072AC8" stroke-width="1.3125"/>
<path id="Vector_2" d="M9.08815 11.3752L4.43752 8.95584C4.43012 8.95226 4.42389 8.94666 4.41952 8.9397C4.41516 8.93274 4.41284 8.92468 4.41284 8.91647C4.41284 8.90825 4.41516 8.90019 4.41952 8.89323C4.42389 8.88627 4.43012 8.88067 4.43752 8.87709L14.2769 3.87646H14.3163L24.125 8.82459C24.1324 8.82817 24.1387 8.83377 24.143 8.84073C24.1474 8.84769 24.1497 8.85575 24.1497 8.86397C24.1497 8.87218 24.1474 8.88024 24.143 8.8872C24.1387 8.89416 24.1324 8.89976 24.125 8.90334L19.5006 11.3752" stroke="#072AC8" stroke-width="1.3125"/>
<path id="Vector_3" d="M9.08814 14.0831H8.24377C8.24377 14.0831 6.95752 14.0831 6.95752 16.0606C6.95752 17.885 8.23939 17.885 8.23939 17.885L9.33752 17.8631" stroke="#072AC8" stroke-width="1.3125"/>
<path id="Vector_4" d="M19.4438 14.3064H20.2882C20.2882 14.3064 21.6007 14.3064 21.6007 16.2883C21.6007 18.1126 20.3144 18.1126 20.3144 18.1126H19.1594" stroke="#072AC8" stroke-width="1.3125"/>
<path id="Vector_5" d="M23.5649 19.7051V9.20068" stroke="#072AC8" stroke-width="1.3125"/>
<path id="Vector_6" d="M23.5649 21.7305C24.1231 21.7305 24.5756 21.278 24.5756 20.7199C24.5756 20.1617 24.1231 19.7092 23.5649 19.7092C23.0068 19.7092 22.5543 20.1617 22.5543 20.7199C22.5543 21.278 23.0068 21.7305 23.5649 21.7305Z" stroke="#072AC8" stroke-width="1.3125"/>
<path id="Vector_7" d="M17.02 20.7944V24.1282H11.8269V20.9782" stroke="#072AC8" stroke-width="1.3125"/>
<path id="Vector_8" d="M19.5006 13.1819C17.8247 12.8795 16.1243 12.733 14.4213 12.7444C12.6333 12.709 10.8464 12.8556 9.08813 13.1819" stroke="#072AC8" stroke-width="1.3125"/>
</g>
</svg>
