<svg width="12" height="15" viewBox="0 0 12 15" fill="none" xmlns="http://www.w3.org/2000/svg">
<g id="Vector">
<path id="Vector_2" d="M10.5714 5.5173V4.6463C10.5714 3.4137 10.0898 2.23203 9.23252 1.36103C8.37515 0.489313 7.21242 0 6 0C4.78758 0 3.62485 0.489313 2.76748 1.36103C1.91019 2.23203 1.42856 3.4137 1.42856 4.6463V5.5173H0V8.90156C0 12.2643 2.6916 15 6 15C9.3084 15 12 12.2643 12 8.90156V5.5173H10.5714ZM2.57146 4.6463C2.57146 3.72221 2.93266 2.83543 3.57565 2.18182C4.21863 1.52893 5.09068 1.16159 6 1.16159C6.90932 1.16159 7.78137 1.52893 8.42435 2.18182C9.06734 2.83543 9.42854 3.72221 9.42854 4.6463V5.5173H2.57146V4.6463ZM10.8572 8.90156C10.8572 11.6236 8.67819 13.8385 6 13.8385C3.32181 13.8385 1.14282 11.6236 1.14282 8.90156V6.67888H10.8572V8.90156Z" fill="#626262"/>
</g>
</svg>
