<svg width="13" height="12" viewBox="0 0 13 12" fill="none" xmlns="http://www.w3.org/2000/svg">
<path id="Vector" d="M12.3431 7.28344L11.3363 6.69444L12.3137 6.11002C12.4056 6.05428 12.466 5.9557 12.466 5.84256C12.466 5.80803 12.4606 5.77517 12.4501 5.74398L12.4509 5.74606C12.4132 5.62002 12.2974 5.52976 12.1602 5.52976C12.148 5.52976 12.1359 5.53059 12.1241 5.53184H12.1254L9.09204 5.78391C9.98598 4.96405 10.9013 4.16125 11.8615 3.39797C11.8712 3.39048 11.8796 3.38299 11.888 3.37509C12.0964 3.16794 12.2257 2.88218 12.2257 2.56647C12.2257 2.25075 12.0964 1.96416 11.8871 1.75701L10.4533 0.335679C10.2461 0.128531 9.95871 0 9.64116 0C9.6399 0 9.63906 0 9.63822 0L9.63738 0C9.30682 0.00124788 9.0094 0.139346 8.79882 0.36022L8.7984 0.360636C6.41736 3.30355 3.80518 5.89331 0.935433 8.17775L0.836852 8.25346C0.628365 8.4606 0.5 8.74637 0.5 9.06208C0.5 9.37779 0.628784 9.66356 0.837272 9.87071L2.27152 11.2925C2.47917 11.4992 2.7661 11.6273 3.08365 11.6273C3.08491 11.6273 3.08617 11.6273 3.08743 11.6273C3.41799 11.6261 3.71583 11.4875 3.92641 11.2662L3.92683 11.2658C4.67017 10.3399 5.46679 9.44476 6.2869 8.56543L5.99829 11.6593C5.99745 11.6681 5.99703 11.6776 5.99703 11.688C5.99703 11.8261 6.08764 11.943 6.21265 11.9838L6.21475 11.9846C6.24327 11.9946 6.27641 12 6.31081 12C6.31123 12 6.31123 12 6.31165 12C6.42617 12 6.52685 11.9389 6.5818 11.8478L6.58264 11.8465L7.17706 10.849L7.76645 11.8182C7.8214 11.9097 7.9204 11.9701 8.03408 11.9701C8.06932 11.9701 8.1033 11.9642 8.13518 11.9534L8.13308 11.9542C8.26061 11.9126 8.35122 11.7958 8.35122 11.6577C8.35122 11.6485 8.3508 11.6394 8.34996 11.6306V11.6319L7.99885 7.48144L12.1569 7.86287C12.1665 7.8637 12.1757 7.86454 12.1854 7.86454C12.359 7.86412 12.5 7.72477 12.5 7.55257C12.5 7.43859 12.4388 7.33918 12.3469 7.28469L12.3456 7.28386L12.3431 7.28344ZM9.26655 0.776595C9.36052 0.682589 9.49098 0.624354 9.63487 0.624354C9.63571 0.624354 9.63613 0.624354 9.63696 0.624354H9.6378C9.63822 0.624354 9.63864 0.624354 9.63948 0.624354C9.78379 0.624354 9.91425 0.682589 10.0082 0.776595L11.442 2.19834C11.5368 2.29235 11.596 2.42254 11.596 2.56605C11.596 2.70457 11.5415 2.83018 11.4525 2.92336L11.4529 2.92294C10.4407 3.72907 9.47756 4.57763 8.53831 5.44449L6.73492 3.65919C7.6083 2.72827 8.46113 1.7749 9.26655 0.776595ZM6.30158 4.11342L8.08065 5.87376C7.47574 6.44584 6.88817 7.02915 6.31794 7.6237L4.54013 5.85753C5.14029 5.29183 5.72729 4.7106 6.30116 4.11383L6.30158 4.11342ZM7.65025 7.13661L7.65151 7.13536V7.13661H7.65025ZM3.45658 10.8515C3.36178 10.9455 3.23048 11.0038 3.08575 11.0038C2.94103 11.0038 2.80973 10.9455 2.71492 10.8515L1.28068 9.43062C1.18419 9.33662 1.1242 9.20559 1.1242 9.06083C1.1242 8.92939 1.17329 8.8096 1.25425 8.7185L1.25383 8.71892C2.22537 7.95355 3.16252 7.13162 4.08205 6.28597L5.88502 8.07667C5.03807 8.9818 4.21754 9.9019 3.45658 10.8515ZM7.44176 10.0791C7.38597 9.98801 7.28613 9.92811 7.17245 9.92811H7.17077C7.05667 9.92852 6.95683 9.98967 6.90229 10.0803L6.90145 10.0816L6.75253 10.3312L6.98577 7.83168C7.11204 7.70148 7.23285 7.56754 7.3608 7.43859L7.60788 10.3524L7.44176 10.0791ZM10.5624 6.96565L10.8141 7.11331L7.9548 6.85043C8.08694 6.72148 8.22621 6.59794 8.36003 6.47024L10.8363 6.26476L10.5603 6.42948C10.4684 6.4848 10.408 6.5838 10.408 6.69652C10.408 6.8105 10.4697 6.90991 10.5615 6.9644L10.5628 6.96523L10.5624 6.96565Z" fill="#626262"/>
</svg>
