<svg width="12" height="12" viewBox="0 0 12 12" fill="none" xmlns="http://www.w3.org/2000/svg">
<g id="lets-icons:video-fill">
<path id="Vector" fill-rule="evenodd" clip-rule="evenodd" d="M6 10.5C6.59095 10.5 7.17611 10.3836 7.72208 10.1575C8.26804 9.93131 8.76412 9.59984 9.18198 9.18198C9.59984 8.76412 9.93131 8.26804 10.1575 7.72208C10.3836 7.17611 10.5 6.59095 10.5 6C10.5 5.40905 10.3836 4.82389 10.1575 4.27792C9.93131 3.73196 9.59984 3.23588 9.18198 2.81802C8.76412 2.40016 8.26804 2.06869 7.72208 1.84254C7.17611 1.6164 6.59095 1.5 6 1.5C4.80653 1.5 3.66193 1.97411 2.81802 2.81802C1.97411 3.66193 1.5 4.80653 1.5 6C1.5 7.19347 1.97411 8.33807 2.81802 9.18198C3.66193 10.0259 4.80653 10.5 6 10.5ZM5.3915 3.995L8.2135 5.563C8.29141 5.60632 8.35632 5.66967 8.40151 5.74651C8.44671 5.82334 8.47054 5.91086 8.47054 6C8.47054 6.08914 8.44671 6.17666 8.40151 6.25349C8.35632 6.33033 8.29141 6.39368 8.2135 6.437L5.3915 8.005C5.30012 8.05579 5.19706 8.08182 5.09253 8.08052C4.988 8.07922 4.88562 8.05063 4.79553 7.99758C4.70545 7.94453 4.63079 7.86887 4.57896 7.77808C4.52712 7.6873 4.4999 7.58454 4.5 7.48V4.52C4.4999 4.41546 4.52712 4.3127 4.57896 4.22192C4.63079 4.13113 4.70545 4.05547 4.79553 4.00242C4.88562 3.94937 4.988 3.92078 5.09253 3.91948C5.19706 3.91818 5.30012 3.94421 5.3915 3.995Z" fill="#626262"/>
</g>
</svg>
