<svg width="32" height="32" viewBox="0 0 32 32" fill="none" xmlns="http://www.w3.org/2000/svg">
<g id="lets-icons:video-fill">
<path id="Vector" fill-rule="evenodd" clip-rule="evenodd" d="M16 28C17.5759 28 19.1363 27.6896 20.5922 27.0866C22.0481 26.4835 23.371 25.5996 24.4853 24.4853C25.5996 23.371 26.4835 22.0481 27.0866 20.5922C27.6896 19.1363 28 17.5759 28 16C28 14.4241 27.6896 12.8637 27.0866 11.4078C26.4835 9.95189 25.5996 8.62902 24.4853 7.51472C23.371 6.40042 22.0481 5.5165 20.5922 4.91345C19.1363 4.31039 17.5759 4 16 4C12.8174 4 9.76516 5.26428 7.51472 7.51472C5.26428 9.76515 4 12.8174 4 16C4 19.1826 5.26428 22.2348 7.51472 24.4853C9.76516 26.7357 12.8174 28 16 28ZM14.3773 10.6533L21.9027 14.8347C22.1104 14.9502 22.2835 15.1191 22.404 15.324C22.5245 15.5289 22.5881 15.7623 22.5881 16C22.5881 16.2377 22.5245 16.4711 22.404 16.676C22.2835 16.8809 22.1104 17.0498 21.9027 17.1653L14.3773 21.3467C14.1337 21.4821 13.8588 21.5515 13.5801 21.5481C13.3013 21.5446 13.0283 21.4683 12.7881 21.3269C12.5479 21.1854 12.3488 20.9836 12.2105 20.7416C12.0723 20.4995 11.9997 20.2254 12 19.9467V12.0533C11.9997 11.7746 12.0723 11.5005 12.2105 11.2585C12.3488 11.0164 12.5479 10.8146 12.7881 10.6731C13.0283 10.5317 13.3013 10.4554 13.5801 10.4519C13.8588 10.4485 14.1337 10.5179 14.3773 10.6533Z" fill="#072AC8"/>
</g>
</svg>
