<svg width="10" height="10" viewBox="0 0 10 10" fill="none" xmlns="http://www.w3.org/2000/svg">
<g id="star-icon" style="mix-blend-mode:luminosity" clip-path="url(#clip0_726_5695)">
<g id="Group">
<path id="Vector" d="M5.36795 0.453344L6.69064 3.13337L9.64823 3.56314C9.98479 3.61202 10.1192 4.02563 9.87565 4.26304L7.73548 6.34912L8.24069 9.29475C8.29819 9.62995 7.94636 9.88557 7.64534 9.72731L4.99998 8.33657L2.35464 9.72731C2.05363 9.88555 1.70179 9.62995 1.75929 9.29475L2.26451 6.34912L0.124359 4.26302C-0.119176 4.02561 0.0152185 3.61204 0.35178 3.56312L3.30937 3.13335L4.63204 0.453344C4.78256 0.148365 5.21742 0.148365 5.36795 0.453344Z" fill="url(#paint0_linear_726_5695)"/>
<path id="Vector_2" d="M6.6906 3.13337L5.36795 0.453339C5.29269 0.300859 5.14635 0.224609 5 0.224609V5.29859L6.6906 3.13337Z" fill="url(#paint1_linear_726_5695)"/>
<path id="Vector_3" d="M7.7355 6.34925L9.87563 4.26312C9.99576 4.14601 10.0238 3.98607 9.98107 3.84814L5 5.29871L7.7355 6.34925Z" fill="url(#paint2_linear_726_5695)"/>
<path id="Vector_4" d="M8.07871 9.6949L5 5.29834V8.33635L7.64535 9.72709C7.79641 9.8065 7.96021 9.78166 8.07871 9.6949Z" fill="url(#paint3_linear_726_5695)"/>
<path id="Vector_5" d="M4.99998 5.29834L2.26447 6.34889L1.75928 9.29453C1.73063 9.46152 1.80363 9.60873 1.92127 9.6949L4.99998 5.29834Z" fill="url(#paint4_linear_726_5695)"/>
<path id="Vector_6" d="M0.0189209 3.84799L4.99999 5.29853L3.30938 3.1333L0.351791 3.56308C0.181264 3.58785 0.0627879 3.70631 0.0189209 3.84799Z" fill="url(#paint5_linear_726_5695)"/>
<path id="Vector_7" d="M2.26451 6.34923L0.124363 4.26312C0.00422721 4.14601 -0.0238 3.98607 0.0189147 3.84814L4.99999 5.29869L2.26451 6.34923Z" fill="url(#paint6_linear_726_5695)"/>
</g>
</g>
<defs>
<linearGradient id="paint0_linear_726_5695" x1="5.00015" y1="1.33845" x2="5.00015" y2="12.3723" gradientUnits="userSpaceOnUse">
<stop stop-color="#FFCF95"/>
<stop offset="0.427" stop-color="#FFC954"/>
<stop offset="1" stop-color="#FFC200"/>
</linearGradient>
<linearGradient id="paint1_linear_726_5695" x1="7.59188" y1="2.76134" x2="4.25637" y2="2.76134" gradientUnits="userSpaceOnUse">
<stop stop-color="#FFC200" stop-opacity="0"/>
<stop offset="0.203" stop-color="#FFBB00" stop-opacity="0.203"/>
<stop offset="0.499" stop-color="#FFA700" stop-opacity="0.499"/>
<stop offset="0.852" stop-color="#FF8800" stop-opacity="0.852"/>
<stop offset="1" stop-color="#FF7800"/>
</linearGradient>
<linearGradient id="paint2_linear_726_5695" x1="8.1617" y1="7.87188" x2="7.27834" y2="3.52176" gradientUnits="userSpaceOnUse">
<stop stop-color="#FFC200" stop-opacity="0"/>
<stop offset="0.203" stop-color="#FFBB00" stop-opacity="0.203"/>
<stop offset="0.499" stop-color="#FFA700" stop-opacity="0.499"/>
<stop offset="0.852" stop-color="#FF8800" stop-opacity="0.852"/>
<stop offset="1" stop-color="#FF7800"/>
</linearGradient>
<linearGradient id="paint3_linear_726_5695" x1="3.87846" y1="10.1576" x2="7.33815" y2="6.69794" gradientUnits="userSpaceOnUse">
<stop stop-color="#FFC200" stop-opacity="0"/>
<stop offset="0.203" stop-color="#FFBB00" stop-opacity="0.203"/>
<stop offset="0.499" stop-color="#FFA700" stop-opacity="0.499"/>
<stop offset="0.852" stop-color="#FF8800" stop-opacity="0.852"/>
<stop offset="1" stop-color="#FF7800"/>
</linearGradient>
<linearGradient id="paint4_linear_726_5695" x1="1.41128" y1="5.78251" x2="3.96136" y2="7.91591" gradientUnits="userSpaceOnUse">
<stop stop-color="#FFC200" stop-opacity="0"/>
<stop offset="0.203" stop-color="#FFBB00" stop-opacity="0.203"/>
<stop offset="0.499" stop-color="#FFA700" stop-opacity="0.499"/>
<stop offset="0.852" stop-color="#FF8800" stop-opacity="0.852"/>
<stop offset="1" stop-color="#FF7800"/>
</linearGradient>
<linearGradient id="paint5_linear_726_5695" x1="3.32293" y1="2.2636" x2="2.28957" y2="5.19701" gradientUnits="userSpaceOnUse">
<stop stop-color="#FFC200" stop-opacity="0"/>
<stop offset="0.203" stop-color="#FFBB00" stop-opacity="0.203"/>
<stop offset="0.499" stop-color="#FFA700" stop-opacity="0.499"/>
<stop offset="0.852" stop-color="#FF8800" stop-opacity="0.852"/>
<stop offset="1" stop-color="#FF7800"/>
</linearGradient>
<linearGradient id="paint6_linear_726_5695" x1="7.21275" y1="2.57009" x2="-0.379122" y2="5.80351" gradientUnits="userSpaceOnUse">
<stop stop-color="#FFC200" stop-opacity="0"/>
<stop offset="0.203" stop-color="#FFBB00" stop-opacity="0.203"/>
<stop offset="0.499" stop-color="#FFA700" stop-opacity="0.499"/>
<stop offset="0.852" stop-color="#FF8800" stop-opacity="0.852"/>
<stop offset="1" stop-color="#FF7800"/>
</linearGradient>
<clipPath id="clip0_726_5695">
<rect width="10" height="10" fill="white"/>
</clipPath>
</defs>
</svg>
